<?xml version="1.0" encoding="utf-8"?>
<!-- Generator: Adobe Illustrator 21.1.0, SVG Export Plug-In . SVG Version: 6.00 Build 0)  -->
<svg version="1.1" id="Layer_1" xmlns="http://www.w3.org/2000/svg" xmlns:xlink="http://www.w3.org/1999/xlink" x="0px" y="0px"
	 viewBox="0 0 24 24" style="enable-background:new 0 0 24 24;" xml:space="preserve">
<style type="text/css">
	.st0{fill:none;}
	.st1{fill:#FFFFFF;}
</style>
<path class="st0" d="M0-0.2h24v24H0V-0.2z"/>
<g>
	<g>
		<path class="st1" d="M17.6,5.7c0.1-0.1,0.1-0.2-0.1-0.2l-4.2-0.1c-0.7,0-0.7-1,0-1l5.5,0c0.4,0,0.6,0.3,0.6,0.6l0,5.5
			c0,0.7-1,0.7-1,0l-0.1-4.2c0-0.1-0.1-0.2-0.2-0.1L6.4,18.3c-0.1,0.1-0.1,0.2,0.1,0.2l4.2,0.1c0.7,0,0.7,1,0,1l-5.5,0
			c-0.4,0-0.6-0.3-0.6-0.6l0-5.5c0-0.7,1-0.7,1,0l0.1,4.2c0,0.1,0.1,0.2,0.2,0.1L17.6,5.7z"/>
	</g>
</g>
</svg>
