<?xml version="1.0" encoding="utf-8"?>
<!-- Generator: Adobe Illustrator 15.1.0, SVG Export Plug-In . SVG Version: 6.00 Build 0)  -->
<!DOCTYPE svg PUBLIC "-//W3C//DTD SVG 1.1//EN" "http://www.w3.org/Graphics/SVG/1.1/DTD/svg11.dtd">
<svg version="1.1" id="Layer_1" xmlns="http://www.w3.org/2000/svg" xmlns:xlink="http://www.w3.org/1999/xlink" x="0px" y="0px"
	 width="50.5px" height="63.333px" viewBox="13.47 18.5 50.5 63.333" enable-background="new 13.47 18.5 50.5 63.333"
	 xml:space="preserve">
<path d="M46.061,20.455H14.909v59.09h45.455V34.756L46.061,20.455z M46.727,24.334l9.757,9.756h-9.757V24.334z M17.181,77.272
	V22.728h27.273v13.636h13.636v40.909H17.181z"/>
<path d="M24.624,69.152L24.624,69.152c-0.47,0-0.921-0.152-1.306-0.44c-1.406-1.054-1.595-2.228-1.505-3.026
	c0.245-2.198,2.963-4.499,8.079-6.843c2.03-4.449,3.962-9.932,5.113-14.513c-1.347-2.933-2.655-6.737-1.701-8.968
	c0.334-0.782,0.922-1.332,1.7-1.591c0.308-0.103,0.609-0.155,0.895-0.155c0.681,0,1.289,0.297,1.713,0.837
	c0.398,0.508,1.598,2.037-0.207,9.635c1.819,3.758,4.397,7.587,6.868,10.209c1.77-0.321,3.293-0.483,4.533-0.483
	c2.114,0,3.396,0.493,3.918,1.507c0.432,0.84,0.255,1.821-0.527,2.916c-0.752,1.053-1.788,1.608-2.997,1.608
	c-1.643,0-3.553-1.038-5.686-3.085c-3.831,0.801-8.304,2.229-11.918,3.81c-1.129,2.396-2.211,4.324-3.217,5.738
	C26.998,68.248,25.804,69.152,24.624,69.152z M28.217,62.233c-2.886,1.621-4.062,2.953-4.146,3.704
	c-0.014,0.123-0.05,0.45,0.582,0.935C24.854,66.809,26.029,66.272,28.217,62.233z M46.408,56.264c1.1,0.846,2.072,1.309,2.792,1.309
	c0.316,0,0.732-0.074,1.148-0.657c0.201-0.282,0.279-0.463,0.31-0.56c-0.165-0.088-0.651-0.27-1.852-0.27
	C48.126,56.086,47.315,56.146,46.408,56.264z M36.542,47.35c-0.966,3.34-2.24,6.946-3.609,10.212c2.82-1.095,5.889-2.05,8.77-2.728
	C39.88,52.718,38.058,50.075,36.542,47.35z M35.853,35.893c-0.03,0.005-0.072,0.014-0.13,0.034
	c-0.133,0.044-0.239,0.116-0.329,0.329c-0.348,0.812-0.073,2.355,0.458,4.013C36.293,37.411,36.059,36.198,35.853,35.893z"/>
</svg>
